<svg width="129" height="20" viewBox="0 0 129 20" fill="none" xmlns="http://www.w3.org/2000/svg">
<path d="M1.736 15C1.472 15 1.25 14.91 1.07 14.73C0.89 14.55 0.8 14.328 0.8 14.064V1.878C0.8 1.602 0.89 1.38 1.07 1.212C1.25 1.032 1.472 0.942 1.736 0.942C2.096 0.942 2.372 1.11 2.564 1.446L7.91 12.156L13.112 1.446C13.304 1.11 13.58 0.942 13.94 0.942C14.204 0.942 14.426 1.032 14.606 1.212C14.786 1.38 14.876 1.602 14.876 1.878V14.064C14.876 14.328 14.78 14.55 14.588 14.73C14.408 14.91 14.192 15 13.94 15C13.676 15 13.454 14.91 13.274 14.73C13.094 14.55 13.004 14.328 13.004 14.064V5.118L8.648 13.992C8.444 14.304 8.174 14.46 7.838 14.46C7.442 14.46 7.154 14.274 6.974 13.902L2.672 5.28V14.064C2.672 14.328 2.582 14.55 2.402 14.73C2.222 14.91 2 15 1.736 15ZM22.4076 15.072C21.5316 15.072 20.7456 14.856 20.0496 14.424C19.3536 13.98 18.8016 13.386 18.3936 12.642C17.9976 11.886 17.7996 11.034 17.7996 10.086C17.7996 9.138 18.0156 8.286 18.4476 7.53C18.8916 6.774 19.4856 6.18 20.2296 5.748C20.9856 5.304 21.8316 5.082 22.7676 5.082C23.7036 5.082 24.5436 5.304 25.2876 5.748C26.0316 6.18 26.6196 6.774 27.0516 7.53C27.4956 8.286 27.7176 9.138 27.7176 10.086V14.1C27.7176 14.364 27.6276 14.586 27.4476 14.766C27.2796 14.934 27.0636 15.018 26.7996 15.018C26.5356 15.018 26.3136 14.934 26.1336 14.766C25.9656 14.586 25.8816 14.364 25.8816 14.1V13.434C25.4616 13.938 24.9516 14.34 24.3516 14.64C23.7636 14.928 23.1156 15.072 22.4076 15.072ZM22.7676 13.452C23.3796 13.452 23.9256 13.308 24.4056 13.02C24.8856 12.72 25.2636 12.318 25.5396 11.814C25.8156 11.298 25.9536 10.722 25.9536 10.086C25.9536 9.438 25.8156 8.862 25.5396 8.358C25.2636 7.842 24.8856 7.44 24.4056 7.152C23.9256 6.852 23.3796 6.702 22.7676 6.702C22.1676 6.702 21.6216 6.852 21.1296 7.152C20.6496 7.44 20.2656 7.842 19.9776 8.358C19.7016 8.862 19.5636 9.438 19.5636 10.086C19.5636 10.722 19.7016 11.298 19.9776 11.814C20.2656 12.318 20.6496 12.72 21.1296 13.02C21.6216 13.308 22.1676 13.452 22.7676 13.452ZM34.9141 15.072C33.9781 15.072 33.1321 14.856 32.3761 14.424C31.6321 13.98 31.0381 13.38 30.5941 12.624C30.1621 11.868 29.9461 11.016 29.9461 10.068C29.9461 9.12 30.1441 8.274 30.5401 7.53C30.9481 6.774 31.5001 6.18 32.1961 5.748C32.8921 5.304 33.6781 5.082 34.5541 5.082C35.2621 5.082 35.9161 5.232 36.5161 5.532C37.1161 5.82 37.6201 6.216 38.0281 6.72V1.86C38.0281 1.584 38.1121 1.362 38.2801 1.194C38.4601 1.026 38.6821 0.942 38.9461 0.942C39.2221 0.942 39.4441 1.026 39.6121 1.194C39.7801 1.362 39.8641 1.584 39.8641 1.86V10.068C39.8641 11.016 39.6421 11.868 39.1981 12.624C38.7661 13.38 38.1781 13.98 37.4341 14.424C36.6901 14.856 35.8501 15.072 34.9141 15.072ZM34.9141 13.452C35.5261 13.452 36.0721 13.308 36.5521 13.02C37.0321 12.72 37.4101 12.312 37.6861 11.796C37.9621 11.28 38.1001 10.704 38.1001 10.068C38.1001 9.42 37.9621 8.844 37.6861 8.34C37.4101 7.836 37.0321 7.44 36.5521 7.152C36.0721 6.852 35.5261 6.702 34.9141 6.702C34.3141 6.702 33.7681 6.852 33.2761 7.152C32.7961 7.44 32.4121 7.836 32.1241 8.34C31.8481 8.844 31.7101 9.42 31.7101 10.068C31.7101 10.704 31.8481 11.28 32.1241 11.796C32.4121 12.312 32.7961 12.72 33.2761 13.02C33.7681 13.308 34.3141 13.452 34.9141 13.452ZM47.7323 15.072C46.7363 15.072 45.8483 14.862 45.0683 14.442C44.3003 14.01 43.6943 13.422 43.2503 12.678C42.8183 11.922 42.6023 11.058 42.6023 10.086C42.6023 9.102 42.8063 8.238 43.2143 7.494C43.6343 6.738 44.2103 6.15 44.9423 5.73C45.6743 5.298 46.5143 5.082 47.4623 5.082C48.3983 5.082 49.2023 5.292 49.8743 5.712C50.5463 6.12 51.0563 6.69 51.4043 7.422C51.7643 8.142 51.9443 8.976 51.9443 9.924C51.9443 10.152 51.8663 10.344 51.7103 10.5C51.5543 10.644 51.3563 10.716 51.1163 10.716H44.2763C44.4083 11.544 44.7863 12.222 45.4103 12.75C46.0463 13.266 46.8203 13.524 47.7323 13.524C48.1043 13.524 48.4823 13.458 48.8663 13.326C49.2623 13.182 49.5803 13.02 49.8203 12.84C50.0003 12.708 50.1923 12.642 50.3963 12.642C50.6123 12.63 50.7983 12.69 50.9543 12.822C51.1583 13.002 51.2663 13.2 51.2783 13.416C51.2903 13.632 51.1943 13.818 50.9903 13.974C50.5823 14.298 50.0723 14.562 49.4603 14.766C48.8603 14.97 48.2843 15.072 47.7323 15.072ZM47.4623 6.63C46.5743 6.63 45.8603 6.876 45.3203 7.368C44.7803 7.86 44.4383 8.496 44.2943 9.276H50.2883C50.1803 8.508 49.8863 7.878 49.4063 7.386C48.9263 6.882 48.2783 6.63 47.4623 6.63ZM56.626 15C56.098 15 55.63 14.856 55.222 14.568C54.814 14.28 54.496 13.89 54.268 13.398C54.04 12.894 53.926 12.318 53.926 11.67V1.842C53.926 1.578 54.01 1.362 54.178 1.194C54.346 1.026 54.562 0.942 54.826 0.942C55.09 0.942 55.306 1.026 55.474 1.194C55.642 1.362 55.726 1.578 55.726 1.842V11.67C55.726 12.114 55.81 12.48 55.978 12.768C56.146 13.056 56.362 13.2 56.626 13.2H57.076C57.316 13.2 57.508 13.284 57.652 13.452C57.808 13.62 57.886 13.836 57.886 14.1C57.886 14.364 57.772 14.58 57.544 14.748C57.316 14.916 57.022 15 56.662 15H56.626ZM61.4465 19.32C61.3265 19.32 61.1825 19.284 61.0145 19.212C60.4865 18.972 60.3425 18.594 60.5825 18.078L62.3825 14.028L58.3325 6.342C58.2125 6.114 58.1945 5.898 58.2785 5.694C58.3745 5.478 58.5365 5.322 58.7645 5.226C58.9925 5.13 59.2085 5.124 59.4125 5.208C59.6165 5.28 59.7725 5.43 59.8805 5.658L63.1745 12.21L66.0725 5.676C66.3125 5.172 66.6905 5.028 67.2065 5.244C67.7465 5.472 67.8965 5.85 67.6565 6.378L62.1485 18.762C62.0045 19.134 61.7705 19.32 61.4465 19.32ZM70.3036 15.018C70.0396 15.018 69.8176 14.934 69.6376 14.766C69.4696 14.586 69.3856 14.364 69.3856 14.1V6.072C69.3856 5.796 69.4696 5.574 69.6376 5.406C69.8176 5.238 70.0396 5.154 70.3036 5.154C70.5796 5.154 70.8016 5.238 70.9696 5.406C71.1376 5.574 71.2216 5.796 71.2216 6.072V6.27C71.5936 5.898 72.0436 5.604 72.5716 5.388C73.0996 5.172 73.6696 5.064 74.2816 5.064C75.1096 5.064 75.8476 5.244 76.4956 5.604C77.1556 5.952 77.6716 6.468 78.0436 7.152C78.4276 7.836 78.6196 8.676 78.6196 9.672V14.1C78.6196 14.364 78.5296 14.586 78.3496 14.766C78.1816 14.934 77.9656 15.018 77.7016 15.018C77.4376 15.018 77.2156 14.934 77.0356 14.766C76.8676 14.586 76.7836 14.364 76.7836 14.1V9.672C76.7836 8.652 76.5076 7.908 75.9556 7.44C75.4156 6.96 74.7376 6.72 73.9216 6.72C73.4176 6.72 72.9616 6.822 72.5536 7.026C72.1456 7.23 71.8216 7.506 71.5816 7.854C71.3416 8.19 71.2216 8.58 71.2216 9.024V14.1C71.2216 14.364 71.1376 14.586 70.9696 14.766C70.8016 14.934 70.5796 15.018 70.3036 15.018ZM91.2666 15C91.0026 15 90.7806 14.91 90.6006 14.73C90.4206 14.55 90.3306 14.328 90.3306 14.064V2.67H86.4426C86.1906 2.67 85.9806 2.592 85.8126 2.436C85.6566 2.268 85.5786 2.058 85.5786 1.806C85.5786 1.554 85.6566 1.35 85.8126 1.194C85.9806 1.026 86.1906 0.942 86.4426 0.942H96.0726C96.3246 0.942 96.5286 1.026 96.6846 1.194C96.8526 1.35 96.9366 1.554 96.9366 1.806C96.9366 2.058 96.8526 2.268 96.6846 2.436C96.5286 2.592 96.3246 2.67 96.0726 2.67H92.2026V14.064C92.2026 14.328 92.1126 14.55 91.9326 14.73C91.7526 14.91 91.5306 15 91.2666 15ZM100.586 15.072C99.614 15.072 98.756 14.862 98.012 14.442C97.268 14.01 96.68 13.422 96.248 12.678C95.828 11.922 95.618 11.058 95.618 10.086C95.618 9.102 95.828 8.238 96.248 7.494C96.68 6.738 97.268 6.15 98.012 5.73C98.756 5.298 99.614 5.082 100.586 5.082C101.546 5.082 102.398 5.298 103.142 5.73C103.886 6.15 104.468 6.738 104.888 7.494C105.32 8.238 105.536 9.102 105.536 10.086C105.536 11.058 105.326 11.922 104.906 12.678C104.486 13.422 103.904 14.01 103.16 14.442C102.416 14.862 101.558 15.072 100.586 15.072ZM100.586 13.452C101.21 13.452 101.762 13.308 102.242 13.02C102.722 12.732 103.094 12.336 103.358 11.832C103.634 11.328 103.772 10.746 103.772 10.086C103.772 9.426 103.634 8.844 103.358 8.34C103.094 7.824 102.722 7.422 102.242 7.134C101.762 6.846 101.21 6.702 100.586 6.702C99.962 6.702 99.41 6.846 98.93 7.134C98.45 7.422 98.072 7.824 97.796 8.34C97.52 8.844 97.382 9.426 97.382 10.086C97.382 10.746 97.52 11.328 97.796 11.832C98.072 12.336 98.45 12.732 98.93 13.02C99.41 13.308 99.962 13.452 100.586 13.452ZM109.168 15C108.568 15 108.268 14.7 108.268 14.1V6.054C108.268 5.454 108.568 5.154 109.168 5.154C109.768 5.154 110.068 5.454 110.068 6.054V6.396C110.428 5.976 110.866 5.646 111.382 5.406C111.91 5.166 112.48 5.046 113.092 5.046C113.812 5.046 114.346 5.166 114.694 5.406C115.054 5.634 115.192 5.91 115.108 6.234C115.048 6.486 114.928 6.654 114.748 6.738C114.568 6.81 114.358 6.822 114.118 6.774C113.35 6.618 112.66 6.606 112.048 6.738C111.436 6.87 110.95 7.116 110.59 7.476C110.242 7.836 110.068 8.292 110.068 8.844V14.1C110.068 14.7 109.768 15 109.168 15ZM118.084 15C117.856 15 117.652 14.916 117.472 14.748C117.292 14.58 117.202 14.358 117.202 14.082V7.062H116.428C116.176 7.062 115.972 6.99 115.816 6.846C115.66 6.702 115.582 6.522 115.582 6.306C115.582 6.066 115.66 5.874 115.816 5.73C115.972 5.586 116.176 5.514 116.428 5.514H117.202V5.208C117.202 4.344 117.37 3.594 117.706 2.958C118.054 2.322 118.534 1.83 119.146 1.482C119.758 1.122 120.466 0.942 121.27 0.942C121.534 0.942 121.75 1.02 121.918 1.176C122.098 1.332 122.188 1.53 122.188 1.77C122.188 1.998 122.098 2.196 121.918 2.364C121.75 2.52 121.534 2.598 121.27 2.598C120.598 2.598 120.058 2.82 119.65 3.264C119.242 3.708 119.038 4.296 119.038 5.028V5.514H120.874C121.126 5.514 121.33 5.586 121.486 5.73C121.642 5.874 121.72 6.066 121.72 6.306C121.72 6.522 121.642 6.702 121.486 6.846C121.33 6.99 121.126 7.062 120.874 7.062H119.038V14.082C119.038 14.358 118.954 14.58 118.786 14.748C118.618 14.916 118.384 15 118.084 15ZM124.69 15C124.462 15 124.258 14.916 124.078 14.748C123.898 14.58 123.808 14.358 123.808 14.082V7.062H123.034C122.782 7.062 122.578 6.99 122.422 6.846C122.266 6.702 122.188 6.522 122.188 6.306C122.188 6.066 122.266 5.874 122.422 5.73C122.578 5.586 122.782 5.514 123.034 5.514H123.808V5.208C123.808 4.344 123.976 3.594 124.312 2.958C124.66 2.322 125.14 1.83 125.752 1.482C126.364 1.122 127.072 0.942 127.876 0.942C128.14 0.942 128.356 1.02 128.524 1.176C128.704 1.332 128.794 1.53 128.794 1.77C128.794 1.998 128.704 2.196 128.524 2.364C128.356 2.52 128.14 2.598 127.876 2.598C127.204 2.598 126.664 2.82 126.256 3.264C125.848 3.708 125.644 4.296 125.644 5.028V5.514H127.48C127.732 5.514 127.936 5.586 128.092 5.73C128.248 5.874 128.326 6.066 128.326 6.306C128.326 6.522 128.248 6.702 128.092 6.846C127.936 6.99 127.732 7.062 127.48 7.062H125.644V14.082C125.644 14.358 125.56 14.58 125.392 14.748C125.224 14.916 124.99 15 124.69 15Z" fill="#25282B"/>
</svg>
